<?xml version="1.0" encoding="UTF-8"?><svg id="b" xmlns="http://www.w3.org/2000/svg" width="180" height="182.45" viewBox="0 0 180 182.45"><defs><style>.d{fill:#2a2a82;}.e{fill:#df1f26;fill-rule:evenodd;}</style></defs><g id="c"><polygon class="e" points="53.88 182.4 46.31 182.4 46.31 162.76 46.1 162.96 45.89 163.15 45.66 163.33 45.45 163.51 45.21 163.67 44.97 163.83 44.72 163.99 44.47 164.13 44.21 164.26 43.94 164.39 43.67 164.51 43.39 164.62 43.1 164.73 42.82 164.82 42.52 164.91 42.21 164.99 41.69 165.11 41.14 165.22 40.57 165.34 39.98 165.44 39.37 165.53 38.72 165.62 38.06 165.69 37.37 165.76 36.65 165.82 35.92 165.87 35.16 165.92 34.37 165.95 33.57 165.98 32.73 166.01 31.88 166.02 30.99 166.02 30.14 166.02 29.31 166.04 28.5 166.07 27.73 166.09 26.97 166.13 26.24 166.18 25.53 166.23 24.86 166.3 24.2 166.38 23.57 166.47 22.96 166.56 22.38 166.67 21.82 166.78 21.3 166.9 20.79 167.03 20.31 167.17 20.02 167.26 19.76 167.36 19.5 167.45 19.24 167.55 19 167.64 18.76 167.76 18.53 167.86 18.32 167.97 18.11 168.08 17.92 168.2 17.73 168.32 17.54 168.45 17.37 168.57 17.2 168.7 17.05 168.83 16.91 168.97 16.77 169.12 16.63 169.25 16.52 169.4 16.41 169.55 16.3 169.71 16.21 169.85 16.13 170.01 16.05 170.18 15.98 170.34 15.93 170.51 15.88 170.68 15.85 170.85 15.81 171.03 15.79 171.22 15.78 171.4 15.77 171.59 15.78 171.75 15.79 171.91 15.8 172.07 15.82 172.23 15.86 172.37 15.89 172.53 15.93 172.68 15.98 172.83 16.03 172.99 16.1 173.14 16.17 173.27 16.23 173.42 16.31 173.57 16.41 173.7 16.5 173.85 16.6 173.98 16.7 174.12 16.81 174.26 16.94 174.39 17.07 174.52 17.34 174.78 17.63 175.04 17.95 175.29 18.29 175.53 18.67 175.77 19.07 176 19.49 176.22 19.92 176.42 20.35 176.62 20.8 176.8 21.25 176.97 21.71 177.12 22.17 177.25 22.65 177.38 23.14 177.48 23.64 177.57 24.14 177.65 24.65 177.72 25.18 177.76 25.7 177.81 26.25 177.82 26.79 177.83 27.32 177.82 27.85 177.8 28.37 177.76 28.9 177.72 29.42 177.65 29.93 177.56 30.46 177.47 30.97 177.35 31.46 177.23 31.93 177.11 32.36 176.98 32.76 176.85 33.13 176.71 33.47 176.57 33.77 176.44 34.06 176.29 34.06 181.01 33.52 181.19 33 181.35 32.47 181.51 31.94 181.64 31.39 181.77 30.85 181.89 30.3 182 29.73 182.1 29.18 182.18 28.63 182.25 28.08 182.31 27.55 182.36 27.01 182.4 26.48 182.43 25.94 182.45 25.42 182.45 24.98 182.45 24.56 182.44 24.13 182.43 23.71 182.4 23.3 182.37 22.88 182.34 22.47 182.29 22.07 182.25 21.66 182.2 21.26 182.13 20.87 182.07 20.48 182 20.09 181.92 19.7 181.84 19.33 181.74 18.94 181.64 18.58 181.54 18.2 181.43 17.84 181.32 17.48 181.2 17.11 181.06 16.76 180.93 16.41 180.79 16.06 180.65 15.71 180.49 15.37 180.33 15.04 180.17 14.7 180 14.37 179.82 14.05 179.64 13.72 179.44 13.4 179.25 13.09 179.05 12.79 178.84 12.5 178.64 12.22 178.43 11.94 178.22 11.68 178.01 11.42 177.8 11.18 177.58 10.94 177.37 10.73 177.15 10.51 176.92 10.31 176.71 10.11 176.48 9.93 176.25 9.76 176.03 9.59 175.79 9.44 175.56 9.29 175.32 9.16 175.09 9.03 174.85 8.92 174.61 8.82 174.37 8.72 174.12 8.63 173.87 8.57 173.62 8.5 173.37 8.44 173.12 8.39 172.87 8.36 172.61 8.34 172.35 8.32 172.09 8.32 171.83 8.32 171.51 8.34 171.21 8.37 170.9 8.4 170.59 8.45 170.3 8.52 170 8.59 169.72 8.67 169.43 8.76 169.16 8.87 168.88 8.99 168.62 9.11 168.35 9.25 168.1 9.39 167.84 9.55 167.59 9.72 167.35 9.91 167.1 10.1 166.87 10.31 166.63 10.52 166.41 10.75 166.19 10.98 165.97 11.23 165.76 11.49 165.55 11.76 165.35 12.04 165.15 12.33 164.95 12.64 164.77 12.94 164.59 13.28 164.41 13.6 164.24 13.96 164.07 14.31 163.9 14.69 163.74 15.06 163.59 15.46 163.44 15.86 163.3 16.28 163.16 16.7 163.03 17.15 162.9 17.59 162.79 18.04 162.66 18.52 162.55 19 162.44 19.49 162.34 20 162.25 20.51 162.16 21.04 162.07 21.58 161.99 22.13 161.91 22.69 161.84 23.27 161.78 23.85 161.72 24.44 161.66 25.04 161.62 25.66 161.57 26.3 161.53 26.93 161.49 27.58 161.47 28.24 161.45 29.59 161.41 30.99 161.4 31.76 161.4 32.51 161.39 33.22 161.37 33.93 161.33 34.62 161.3 35.3 161.25 35.94 161.21 36.57 161.15 37.19 161.07 37.79 161 38.36 160.91 38.92 160.82 39.46 160.72 39.98 160.62 40.48 160.49 40.97 160.37 41.56 160.2 42.12 160.02 42.4 159.93 42.65 159.82 42.9 159.72 43.14 159.62 43.36 159.52 43.59 159.4 43.81 159.29 44.01 159.18 44.21 159.05 44.4 158.94 44.57 158.81 44.74 158.69 44.91 158.55 45.06 158.43 45.21 158.29 45.34 158.15 45.47 158.01 45.59 157.87 45.69 157.73 45.8 157.57 45.89 157.42 45.98 157.26 46.06 157.1 46.12 156.94 46.18 156.78 46.23 156.61 46.28 156.44 46.31 156.27 46.33 156.16 46.35 156.02 46.37 155.86 46.38 155.67 46.37 155.49 46.35 155.32 46.33 155.15 46.3 154.98 46.25 154.81 46.2 154.64 46.13 154.48 46.06 154.32 45.97 154.16 45.88 154 45.77 153.84 45.66 153.7 45.54 153.55 45.4 153.4 45.25 153.25 45.1 153.11 44.93 152.97 44.76 152.83 44.58 152.7 44.39 152.56 44.18 152.43 43.96 152.3 43.75 152.18 43.52 152.05 43.27 151.92 43.02 151.8 42.76 151.69 42.49 151.58 41.92 151.35 41.3 151.13 40.74 150.96 40.18 150.79 39.6 150.63 39 150.5 38.4 150.36 37.79 150.25 37.16 150.13 36.52 150.03 35.87 149.95 35.21 149.87 34.54 149.82 33.85 149.76 33.16 149.72 32.45 149.69 31.73 149.68 30.99 149.67 30.59 149.67 30.2 149.68 29.81 149.69 29.42 149.71 29.05 149.75 28.66 149.78 28.29 149.82 27.92 149.86 27.55 149.91 27.18 149.96 26.83 150.03 26.48 150.1 26.12 150.18 25.77 150.26 25.43 150.34 25.09 150.43 24.75 150.53 24.42 150.63 24.09 150.75 23.77 150.86 23.45 150.98 23.13 151.11 22.81 151.25 22.5 151.39 22.2 151.53 21.9 151.69 21.61 151.85 21.31 152.01 21.02 152.18 20.74 152.36 20.46 152.54 20.17 152.72 19.9 152.91 19.64 153.12 19.39 153.31 19.14 153.52 18.91 153.71 18.68 153.91 18.45 154.12 18.25 154.33 18.04 154.54 17.85 154.75 17.67 154.97 17.49 155.19 17.33 155.4 17.17 155.61 17.01 155.84 16.87 156.07 16.74 156.3 16.61 156.52 16.5 156.75 16.39 156.99 16.29 157.21 16.2 157.45 16.12 157.69 16.05 157.93 15.98 158.18 15.93 158.42 15.88 158.67 15.84 158.92 15.81 159.17 15.79 159.43 15.78 159.68 15.77 159.94 8.18 157.14 8.28 156.82 8.39 156.49 8.51 156.17 8.63 155.85 8.77 155.53 8.92 155.22 9.06 154.91 9.24 154.6 9.41 154.31 9.59 154 9.78 153.71 9.99 153.42 10.19 153.14 10.42 152.85 10.65 152.57 10.89 152.3 11.14 152.03 11.4 151.77 11.66 151.51 11.93 151.25 12.23 150.98 12.53 150.73 12.82 150.49 13.14 150.24 13.47 150 13.8 149.76 14.14 149.53 14.49 149.31 14.86 149.08 15.22 148.85 15.61 148.64 16 148.42 16.39 148.22 16.79 148.01 17.2 147.81 17.61 147.63 18.02 147.44 18.44 147.26 18.88 147.09 19.29 146.93 19.74 146.77 20.17 146.63 20.62 146.48 21.07 146.34 21.51 146.22 21.98 146.1 22.44 145.98 22.9 145.87 23.38 145.76 23.86 145.66 24.34 145.57 24.81 145.49 25.3 145.41 25.8 145.35 26.3 145.28 26.81 145.22 27.32 145.17 27.83 145.13 28.34 145.1 28.86 145.06 29.39 145.04 29.92 145.03 30.46 145.02 30.99 145.02 31.99 145.02 32.96 145.04 33.88 145.07 34.76 145.13 35.6 145.19 36.4 145.27 37.16 145.37 37.88 145.47 38.58 145.59 39.31 145.76 40.07 145.92 40.85 146.13 41.64 146.37 42.47 146.62 43.29 146.9 44.16 147.19 44.45 147.37 44.75 147.56 45.03 147.74 45.33 147.92 45.46 147.97 45.57 148.01 45.69 148.03 45.8 148.04 45.9 148.04 45.99 148.03 46.08 148 46.17 147.96 46.22 147.93 46.25 147.91 46.29 147.88 46.31 147.83 46.32 147.78 46.33 147.74 46.33 147.68 46.33 147.62 46.32 147.5 46.31 147.4 46.31 147.33 46.31 147.27 46.31 142.67 53.88 142.67 53.88 182.4"/><polygon class="e" points="114.94 168.41 114.94 168.76 114.92 169.13 114.88 169.48 114.84 169.83 114.78 170.18 114.71 170.52 114.62 170.86 114.53 171.2 114.41 171.53 114.29 171.87 114.15 172.2 114.01 172.52 113.85 172.84 113.67 173.16 113.48 173.47 113.28 173.78 113.06 174.1 112.83 174.39 112.6 174.7 112.34 174.99 112.08 175.29 111.8 175.58 111.5 175.87 111.19 176.15 110.88 176.43 110.55 176.71 110.2 176.99 109.84 177.25 109.48 177.52 109.09 177.78 108.69 178.05 108.28 178.31 107.86 178.56 107.43 178.8 107 179.05 106.56 179.27 106.12 179.49 105.68 179.7 105.22 179.91 104.76 180.1 104.3 180.29 103.82 180.46 103.36 180.65 102.86 180.8 102.39 180.96 101.9 181.11 101.4 181.25 100.9 181.38 100.38 181.51 99.87 181.62 99.36 181.73 98.84 181.82 98.3 181.93 97.77 182.01 97.23 182.08 96.69 182.15 96.14 182.21 95.58 182.27 95.02 182.31 94.46 182.35 93.88 182.37 93.31 182.39 92.72 182.4 92.14 182.4 91.38 182.4 90.63 182.38 89.9 182.35 89.18 182.3 88.46 182.25 87.75 182.18 87.06 182.08 86.38 182 85.69 181.88 85.02 181.76 84.36 181.62 83.7 181.47 83.05 181.32 82.43 181.14 81.79 180.95 81.18 180.74 80.58 180.54 79.98 180.33 79.41 180.1 78.87 179.86 78.33 179.62 77.82 179.37 77.33 179.11 76.86 178.85 76.41 178.58 75.98 178.3 75.57 178 75.17 177.71 74.79 177.41 74.44 177.09 74.1 176.78 73.79 176.45 71.5 182.4 65.43 182.4 65.43 161.4 69.25 161.4 69.25 145.02 76.84 145.02 76.84 168.41 76.84 168.62 76.86 168.83 76.89 169.05 76.91 169.25 76.96 169.47 77 169.67 77.06 169.89 77.13 170.09 77.19 170.3 77.29 170.5 77.37 170.7 77.48 170.91 77.59 171.11 77.71 171.3 77.84 171.51 77.98 171.71 78.13 171.91 78.27 172.11 78.44 172.3 78.62 172.5 78.8 172.7 78.99 172.9 79.18 173.09 79.4 173.28 79.62 173.47 79.85 173.65 80.09 173.85 80.32 174.04 80.58 174.23 80.85 174.41 81.12 174.61 81.4 174.79 81.69 174.97 81.98 175.15 82.27 175.32 82.57 175.48 82.87 175.64 83.17 175.8 83.47 175.95 83.78 176.08 84.1 176.22 84.41 176.34 84.73 176.47 85.05 176.59 85.38 176.71 85.71 176.81 86.04 176.91 86.37 177.01 86.71 177.09 87.05 177.18 87.39 177.26 87.73 177.33 88.08 177.4 88.44 177.45 88.79 177.51 89.14 177.57 89.51 177.6 89.87 177.65 90.25 177.68 90.61 177.71 90.99 177.73 91.36 177.74 91.75 177.75 92.14 177.75 92.51 177.75 92.9 177.74 93.27 177.73 93.65 177.71 94.01 177.68 94.39 177.65 94.74 177.6 95.1 177.57 95.46 177.51 95.81 177.45 96.16 177.4 96.5 177.33 96.86 177.26 97.19 177.18 97.53 177.09 97.86 177 98.19 176.91 98.51 176.81 98.84 176.7 99.16 176.58 99.46 176.47 99.78 176.34 100.09 176.21 100.4 176.07 100.69 175.92 100.99 175.78 101.29 175.63 101.58 175.46 101.86 175.3 102.15 175.13 102.43 174.95 102.71 174.77 102.96 174.58 103.21 174.4 103.45 174.23 103.67 174.05 103.9 173.87 104.12 173.68 104.32 173.5 104.51 173.31 104.71 173.12 104.89 172.94 105.06 172.75 105.23 172.56 105.39 172.36 105.54 172.17 105.68 171.96 105.81 171.77 105.94 171.57 106.05 171.37 106.17 171.17 106.27 170.97 106.36 170.76 106.44 170.56 106.52 170.34 106.59 170.14 106.65 169.92 106.7 169.7 106.75 169.5 106.78 169.29 106.8 169.07 106.83 168.84 106.84 168.63 106.85 168.41 106.85 145.02 114.94 145.02 114.94 168.41"/><polygon class="e" points="172.05 182.4 164.48 182.4 164.48 159 164.47 158.77 164.46 158.53 164.44 158.3 164.42 158.07 164.37 157.84 164.33 157.61 164.27 157.39 164.2 157.16 164.13 156.93 164.04 156.72 163.95 156.5 163.85 156.28 163.74 156.07 163.62 155.85 163.5 155.65 163.36 155.43 163.21 155.23 163.06 155.02 162.9 154.83 162.73 154.63 162.55 154.44 162.37 154.24 162.16 154.05 161.96 153.86 161.75 153.67 161.53 153.48 161.3 153.3 161.06 153.12 160.81 152.93 160.55 152.77 160.29 152.58 160.01 152.41 159.73 152.25 159.45 152.09 159.16 151.92 158.86 151.77 158.57 151.62 158.27 151.48 157.97 151.35 157.66 151.21 157.35 151.09 157.03 150.96 156.71 150.85 156.39 150.73 156.06 150.63 155.73 150.53 155.4 150.44 155.06 150.35 154.72 150.27 154.38 150.19 154.04 150.12 153.69 150.05 153.32 150 152.97 149.94 152.61 149.88 152.24 149.84 151.49 149.77 150.74 149.71 149.96 149.68 149.17 149.67 148.4 149.68 147.63 149.71 146.88 149.77 146.15 149.84 145.79 149.88 145.42 149.94 145.07 150 144.72 150.05 144.37 150.12 144.02 150.19 143.68 150.27 143.34 150.35 143.01 150.44 142.68 150.53 142.35 150.63 142.03 150.73 141.71 150.85 141.4 150.96 141.08 151.09 140.77 151.21 140.47 151.35 140.17 151.48 139.86 151.62 139.57 151.77 139.28 151.92 138.99 152.09 138.7 152.25 138.42 152.41 138.14 152.58 137.88 152.77 137.62 152.93 137.37 153.12 137.13 153.3 136.9 153.48 136.67 153.67 136.46 153.86 136.26 154.05 136.06 154.24 135.87 154.44 135.7 154.63 135.53 154.83 135.37 155.02 135.2 155.23 135.07 155.43 134.93 155.65 134.81 155.85 134.68 156.07 134.58 156.28 134.48 156.5 134.39 156.72 134.31 156.93 134.23 157.16 134.16 157.39 134.1 157.61 134.06 157.84 134.02 158.07 133.99 158.3 133.97 158.53 133.95 158.77 133.95 159 133.95 161.4 149.17 161.4 149.17 166.02 133.95 166.02 133.95 182.4 126.37 182.4 126.37 159 126.37 158.59 126.39 158.18 126.42 157.77 126.47 157.37 126.52 156.98 126.6 156.58 126.69 156.19 126.79 155.82 126.9 155.45 127.03 155.08 127.16 154.72 127.31 154.37 127.48 154.01 127.65 153.67 127.84 153.33 128.05 153 128.27 152.67 128.51 152.36 128.74 152.04 129 151.73 129.27 151.43 129.55 151.13 129.84 150.84 130.15 150.55 130.48 150.27 130.81 150 131.17 149.72 131.53 149.46 131.91 149.22 132.29 148.97 132.69 148.71 133.11 148.48 133.5 148.26 133.89 148.06 134.3 147.85 134.71 147.66 135.12 147.48 135.55 147.3 135.98 147.13 136.41 146.96 136.86 146.8 137.31 146.65 137.78 146.5 138.25 146.37 138.72 146.23 139.2 146.1 139.7 145.99 140.19 145.88 140.7 145.78 141.21 145.68 141.74 145.58 142.26 145.5 142.8 145.43 143.34 145.35 143.89 145.29 144.45 145.23 145.02 145.17 145.58 145.13 146.16 145.1 146.75 145.06 147.35 145.04 147.95 145.03 148.56 145.02 149.17 145.02 149.65 145.02 150.11 145.03 150.58 145.04 151.03 145.06 151.49 145.1 151.95 145.13 152.4 145.17 152.84 145.22 153.29 145.28 153.73 145.35 154.17 145.41 154.61 145.49 155.04 145.57 155.47 145.66 155.9 145.76 156.31 145.86 157.03 146.04 157.75 146.25 158.46 146.48 159.2 146.74 159.95 147.01 160.7 147.31 161.45 147.63 162.21 147.96 162.44 148.09 162.65 148.23 162.88 148.38 163.11 148.56 163.29 148.68 163.45 148.79 163.61 148.88 163.74 148.97 163.88 149.02 164 149.05 164.11 149.08 164.22 149.07 164.28 149.04 164.33 149 164.38 148.94 164.42 148.87 164.45 148.78 164.46 148.68 164.47 148.57 164.48 148.43 164.48 147.88 164.48 142.67 172.05 142.67 172.05 182.4"/><path class="d" d="m26.88,78.75s-10.75,18.03-.81,27.29c10.65,9.92,37.47,6.99,72.82-12.19,29.22-15.84,44.8-33.14,50.99-39.96,19.47-21.46,26.88-37.2,23.46-47.76,6.46,4.82,11.57,18.35-1.3,37.69-13.07,19.64-49.1,55.38-93.18,70.5-41.21,14.13-53.55,6.66-58.32,3.25-6.35-4.55-8.8-20.47,6.35-38.82"/><path class="d" d="m166.49,24.98s1.8-7.89-1.79-11.05c-10.54-9.26-43.5-1.79-76.41,21.61-7.98-8.29-31.6-23.72-57.34-23.88,12.22,12.02,39.59,48.9,53.6,83.18,0,0-7.82,3.57-8.31,3.73C59.63,60.72,36.98,29.86,10.59,1.75c40.73-.81,60.6,9.42,78.36,20.63C132.12-6.04,163.79-1.7,168.45,4.84c4.4,6.17.33,16.08-1.95,20.14"/><path class="d" d="m2.77,15.23c22.97,20.31,47.41,56.37,61.74,87.24.24-.08,6.52-2.28,6.52-2.28C57.34,69.33,30.3,30.51,15.8,16.37c-4.72-.81-8.57-.9-13.03-1.14"/><path class="d" d="m0,30.02c16.29,14.94,41.05,49.38,54.09,75.21.24,0,5.54-1.3,5.54-1.3C50.66,83.3,22.42,42.18,10.43,30.34c-2.37-.52-6.35-.65-10.43-.32"/></g></svg>